<svg width="555" height="477" viewBox="0 0 555 477" fill="none" xmlns="http://www.w3.org/2000/svg">
<g opacity="0.1" clip-path="url(#clip0_428_791)">
<path fill-rule="evenodd" clip-rule="evenodd" d="M-38.1134 184.302C-38.1134 184.302 -25.4382 178.786 -0.775918 177.563C10.4312 177.003 24.0965 177.358 40.2457 179.485C50.5134 180.838 61.7721 182.899 74.0476 185.902C89.4551 189.671 106.463 194.848 125.077 202.215C186.537 226.282 261.293 251.948 332.365 265.641C380.498 274.914 426.917 278.689 466.389 272.922C471.537 272.168 475.66 271.118 479.763 269.576C483.455 268.199 487.131 266.43 491.553 264.126C492.184 263.814 492.245 262.993 491.683 262.291C491.123 261.598 490.157 261.284 489.529 261.605C485.095 263.73 481.423 265.366 477.746 266.618C473.748 267.977 469.751 268.88 464.766 269.473C425.389 274.205 379.36 269.35 331.799 259.239C261.313 244.248 187.457 217.615 126.804 192.724C107.441 184.86 89.723 179.106 73.6702 175.216C60.7714 172.086 48.947 170.105 38.2163 168.988C21.3185 167.243 7.11702 167.561 -4.39613 168.853C-29.9537 171.721 -42.3127 179.171 -42.3127 179.171C-43.5816 179.829 -43.676 181.511 -42.5176 182.933C-41.362 184.345 -39.3823 184.961 -38.1134 184.302Z" fill="#343D33"/>
<path fill-rule="evenodd" clip-rule="evenodd" d="M444.728 275.039C444.728 275.039 446.294 275.51 448.922 276.153C450.13 276.446 451.537 276.787 453.105 277.089C456.668 277.779 460.994 278.402 465.594 279.709C470.153 281.008 474.913 282.717 479.327 285.211C479.814 285.524 480.376 285.476 480.585 285.11C480.795 284.745 480.564 284.196 480.077 283.882C474.512 279.904 468.131 277.009 462.241 274.927C459.896 274.102 457.649 273.402 455.564 272.867C453.971 272.458 452.466 272.093 451.125 271.894C449.73 271.691 448.522 271.631 447.502 271.611C445.198 271.558 443.929 271.725 443.929 271.725C442.941 271.648 442.323 272.329 442.541 273.245C442.76 274.16 443.74 274.961 444.728 275.039Z" fill="#343D33"/>
<path fill-rule="evenodd" clip-rule="evenodd" d="M385.003 273.077C385.003 273.077 386.004 274.132 387.944 275.747C388.807 276.462 389.839 277.281 391.072 278.109C392.264 278.901 393.639 279.663 395.111 280.446C397.034 281.476 399.142 282.471 401.377 283.421C406.965 285.802 413.218 287.786 419.153 288.189C419.677 288.257 420.036 287.932 419.95 287.454C419.871 286.981 419.378 286.534 418.857 286.461C414.369 285.556 409.87 283.696 405.668 281.608C401.414 279.489 397.614 276.952 394.43 275.004C393.029 274.149 391.753 273.446 390.659 272.842C388.264 271.516 386.806 270.804 386.806 270.804C385.93 270.133 384.816 270.099 384.315 270.723C383.814 271.347 384.127 272.406 385.003 273.077Z" fill="#343D33"/>
<path fill-rule="evenodd" clip-rule="evenodd" d="M421.05 274.054C421.05 274.054 421.98 273.695 423.376 272.836C424.002 272.453 424.715 271.99 425.41 271.358C426.079 270.747 426.696 269.976 427.346 269.147C428.2 268.051 429.019 266.807 429.804 265.483C431.978 261.844 433.782 257.656 433.977 253.635C434.041 253.198 433.671 252.684 433.144 252.477C432.62 252.28 432.139 252.476 432.069 252.908C431.497 255.014 430.286 257.043 428.835 259C427.225 261.175 425.257 263.131 423.457 264.882C422.575 265.746 421.686 266.504 420.981 267.266C420.498 267.8 420.116 268.326 419.775 268.807C418.701 270.323 418.173 271.309 418.173 271.309C417.55 271.83 417.684 272.861 418.477 273.621C419.273 274.377 420.43 274.571 421.05 274.054Z" fill="#343D33"/>
<path fill-rule="evenodd" clip-rule="evenodd" d="M288.83 255.54C288.83 255.54 292.12 258.287 297.461 262.715C299.951 264.777 302.864 267.202 306.128 269.855C313.664 275.988 322.927 283.432 331.731 291.625C341.076 300.328 350.039 309.699 356.257 318.731C356.556 319.187 357.151 319.443 357.59 319.305C358.022 319.163 358.134 318.672 357.835 318.216C350.596 306.5 339.028 293.946 327.517 282.967C323.22 278.875 318.95 274.993 314.886 271.487C311.791 268.821 308.861 266.342 306.107 264.191C303.277 261.976 300.667 260.092 298.444 258.517C293.568 255.067 290.51 253.178 290.51 253.178C289.608 252.529 288.503 252.536 288.045 253.191C287.582 253.842 287.935 254.896 288.83 255.54Z" fill="#343D33"/>
<path fill-rule="evenodd" clip-rule="evenodd" d="M323.307 306.187C326.305 303.992 327.752 299.893 328.403 295.698C328.675 293.927 328.79 292.164 328.78 290.508C328.775 289.714 328.772 288.955 328.664 288.223C328.548 287.464 328.365 286.758 328.161 286.119C327.528 284.092 326.912 282.895 326.912 282.895C326.715 281.988 325.761 281.178 324.777 281.083C323.793 280.987 323.156 281.642 323.353 282.549C323.353 282.549 323.21 283.419 323.153 284.972C323.133 285.673 323.082 286.481 323.15 287.423C323.254 288.807 323.584 290.423 323.74 292.097C323.942 294.342 324.085 296.695 323.837 298.886C323.577 301.198 323.027 303.312 321.79 304.846C321.498 305.131 321.594 305.657 322.011 306.029C322.428 306.4 323.009 306.468 323.307 306.187Z" fill="#343D33"/>
<path fill-rule="evenodd" clip-rule="evenodd" d="M263.175 300.387C258.405 286.854 247.922 272.289 236.79 259.521C231.88 253.892 226.863 248.616 222.141 243.957C219.83 241.676 217.602 239.526 215.457 237.598C213.229 235.59 211.106 233.8 209.193 232.239C203.255 227.39 199.328 224.665 199.328 224.665C198.468 223.985 197.354 223.925 196.842 224.526C196.32 225.128 196.598 226.169 197.455 226.853C197.455 226.853 201.65 230.632 208.044 236.705C209.146 237.752 210.318 238.856 211.555 240.014C212.685 241.061 213.871 242.148 215.099 243.279C222.811 250.372 231.99 259.213 240.33 268.834C249.145 279.004 257.092 289.954 261.432 300.469C261.608 300.938 262.142 301.291 262.628 301.27C263.107 301.244 263.349 300.847 263.175 300.387Z" fill="#343D33"/>
<path fill-rule="evenodd" clip-rule="evenodd" d="M219.861 274.687C222.939 272.318 224.199 266.625 224.543 260.769C224.682 258.547 224.683 256.319 224.568 254.239C224.517 253.248 224.468 252.293 224.318 251.387C224.163 250.449 223.94 249.578 223.718 248.797C223.001 246.341 222.33 244.844 222.33 244.844C222.142 243.938 221.195 243.119 220.211 243.01C219.23 242.91 218.581 243.556 218.763 244.458C218.763 244.458 218.666 245.614 218.692 247.596C218.701 248.502 218.707 249.556 218.837 250.761C219.022 252.551 219.454 254.623 219.721 256.766C220.09 259.699 220.4 262.779 220.325 265.573C220.236 268.827 219.769 271.683 218.35 273.35C218.052 273.63 218.148 274.157 218.565 274.528C218.982 274.9 219.563 274.968 219.861 274.687Z" fill="#343D33"/>
<path fill-rule="evenodd" clip-rule="evenodd" d="M135.954 255.279C134.018 239.814 126.168 225.909 116.903 214.443C112.288 208.731 107.318 203.624 102.533 199.259C100.168 197.104 97.8646 195.109 95.6306 193.355C93.3137 191.534 91.0971 189.964 89.0882 188.612C82.8888 184.445 78.6776 182.358 78.6776 182.358C77.7328 181.807 76.6957 181.952 76.3615 182.684C76.0243 183.406 76.5158 184.438 77.4546 184.985C77.4546 184.985 81.1575 187.5 86.7319 191.866C88.5512 193.285 90.5625 194.917 92.7459 196.689C95.4851 198.912 98.5037 201.359 101.565 204.109C105.564 207.705 109.709 211.748 113.642 216.236C123.03 226.939 131.3 240.045 134.119 255.008C134.189 255.467 134.664 255.901 135.166 255.973C135.675 256.05 136.033 255.739 135.954 255.279Z" fill="#343D33"/>
<path fill-rule="evenodd" clip-rule="evenodd" d="M379.52 222.743C378.913 229.749 374.628 236.432 369.271 242.377C364.519 247.657 358.829 252.249 354.007 255.905C353.248 256.484 352.517 257.036 351.833 257.588C351.079 258.185 350.379 258.773 349.72 259.329C345.92 262.576 343.439 264.63 343.439 264.63C342.737 265.052 342.738 266.048 343.451 266.853C344.158 267.653 345.306 267.963 346.012 267.536C346.012 267.536 349.222 266.149 353.692 263.403C354.462 262.927 355.257 262.401 356.064 261.823C356.8 261.288 357.542 260.71 358.283 260.09C363.062 256.144 368.386 250.918 372.747 245.074C377.741 238.375 381.393 230.83 381.38 223.304C381.396 222.867 380.995 222.384 380.479 222.227C379.969 222.074 379.537 222.305 379.52 222.743Z" fill="#343D33"/>
<path fill-rule="evenodd" clip-rule="evenodd" d="M281.264 202.155C278.788 209.908 272.295 215.667 264.671 220.045C257.54 224.134 249.352 226.896 242.416 228.879C241.322 229.194 240.268 229.491 239.258 229.792C238.158 230.116 237.113 230.44 236.125 230.751C230.444 232.535 226.665 233.528 226.665 233.528C225.763 233.656 225.385 234.499 225.817 235.392C226.253 236.295 227.333 236.917 228.239 236.785C228.239 236.785 232.565 236.578 238.836 235.393C239.916 235.19 241.046 234.942 242.212 234.645C243.274 234.375 244.356 234.051 245.461 233.696C252.522 231.437 260.616 227.979 267.556 223.247C275.076 218.118 281.177 211.448 283.082 202.993C283.189 202.587 282.876 202.073 282.374 201.844C281.875 201.611 281.377 201.753 281.264 202.155Z" fill="#343D33"/>
<path fill-rule="evenodd" clip-rule="evenodd" d="M197.626 171.095C193.846 178.48 187.643 184.218 180.839 188.749C173.962 193.33 166.395 196.557 160.02 198.906C158.99 199.288 157.994 199.648 157.049 200.003C156.009 200.398 155.032 200.785 154.108 201.149C148.729 203.295 145.202 204.459 145.202 204.459C144.32 204.636 144.002 205.501 144.481 206.394C144.954 207.284 146.058 207.861 146.939 207.684C146.939 207.684 150.335 207.374 155.458 206.137C157.103 205.739 158.913 205.242 160.814 204.594C162.633 203.968 164.51 203.172 166.458 202.292C170.394 200.514 174.564 198.299 178.619 195.632C187.242 189.957 195.324 182.232 199.377 172.103C199.552 171.733 199.296 171.205 198.814 170.923C198.329 170.646 197.794 170.721 197.626 171.095Z" fill="#343D33"/>
<path fill-rule="evenodd" clip-rule="evenodd" d="M158.146 165.409C162.006 172.767 163.201 178.951 163.175 184.008C163.16 186.28 162.854 188.293 162.456 190.082C162.146 191.492 161.706 192.718 161.358 193.856C161.07 194.77 160.852 195.627 160.62 196.372C159.891 198.682 159.319 200.025 159.319 200.025C158.8 200.622 159.075 201.667 159.926 202.347C160.783 203.032 161.903 203.096 162.415 202.495C162.415 202.495 163.846 201.47 165.375 199.161C165.862 198.439 166.328 197.578 166.716 196.566C167.081 195.598 167.328 194.482 167.527 193.278C167.91 190.913 168.028 188.15 167.66 185.02C166.983 179.417 164.814 172.683 159.734 164.996C159.461 164.545 158.891 164.267 158.456 164.387C158.018 164.498 157.882 164.957 158.146 165.409Z" fill="#343D33"/>
<path fill-rule="evenodd" clip-rule="evenodd" d="M511.771 242.227C506.467 237.955 501.122 236.364 496.154 236.637C492.984 236.805 490.002 237.826 487.298 239.437C484.672 241.004 482.339 243.178 480.394 245.75C476.076 251.468 473.689 259.164 473.777 266.444L473.774 268.104L475.644 269C485.52 273.558 497.094 271.172 505.343 265.818C511.425 261.865 515.693 256.41 516.246 251.47C516.638 247.98 515.312 244.719 511.771 242.227ZM478.723 266.047C486.755 269.052 495.813 266.841 502.688 262.845C508.451 259.499 512.727 254.846 513.458 250.438C513.86 247.984 513.135 245.63 510.653 243.765C506.809 241.263 503.223 240.345 499.902 240.424C496.636 240.503 493.713 241.703 491.055 243.546C488.87 245.064 486.914 247.042 485.199 249.311C481.641 254.049 479.192 260.057 478.723 266.047Z" fill="#343D33"/>
<path fill-rule="evenodd" clip-rule="evenodd" d="M510.375 297.073C511.535 293.045 509.368 288.948 505.373 285.334C503.222 283.388 500.464 281.643 497.384 280.16C494.465 278.753 491.23 277.613 487.92 276.822C480.563 275.063 472.856 275.027 467.099 277.096L464.983 277.82L466.602 280.006C471.546 286.442 483.547 296.694 493.619 301.305C498.819 303.689 503.507 304.59 506.611 303.052C508.545 302.1 509.934 300.228 510.375 297.073ZM472.225 280.721C477.235 286.653 486.439 294.593 494.427 298.615C500.974 301.903 506.688 302.453 507.999 296.136C508.166 293.498 506.711 291.152 504.429 289.077C502.345 287.181 499.518 285.609 496.319 284.264C493.765 283.184 490.987 282.295 488.122 281.616C482.676 280.32 476.948 279.815 472.225 280.721Z" fill="#343D33"/>
<path fill-rule="evenodd" clip-rule="evenodd" d="M462.927 304.467L461.851 303.372C458.028 299.236 453.334 294.849 448.036 291.086C444.61 288.656 440.939 286.511 437.175 284.804C427.929 280.622 418.116 279.11 409.368 282.732L407.622 283.425L409.004 285.288C413.923 291.76 423.146 300.865 434.087 305.535C442.617 309.175 452.219 310.215 461.595 305.148L462.927 304.467ZM458.529 303.825C454.155 299.827 448.794 295.827 443.095 292.447C439.224 290.15 435.19 288.116 431.073 286.765C425.3 284.871 419.406 284.232 413.849 285.806C418.4 291.554 425.875 298.767 434.748 302.827C442.03 306.152 450.229 307.31 458.529 303.825Z" fill="#343D33"/>
<path fill-rule="evenodd" clip-rule="evenodd" d="M390.671 343.93L390.222 342.827C388.413 337.798 385.611 332.633 381.919 327.761C379.507 324.57 376.704 321.516 373.646 318.721C365.844 311.583 356.366 306.116 346.773 303.836L344.351 303.233L344.661 305.394C345.578 311.069 349.936 323.681 359.311 332.951C366.301 339.86 376.028 345.024 389.138 344.021L390.671 343.93ZM386.653 341.887C384.595 337.679 381.716 333.487 378.388 329.486C376.039 326.661 373.45 323.947 370.665 321.411C364.369 315.682 357.058 310.898 349.399 308.389C350.658 314.149 354.32 323.81 361.538 331.299C367.371 337.354 375.537 341.921 386.653 341.887Z" fill="#343D33"/>
<path fill-rule="evenodd" clip-rule="evenodd" d="M329.087 335.867L329.686 335.042C330.654 333.893 333.757 329.171 335.241 322.809C335.933 319.864 336.193 316.544 335.896 313.174C335.373 307.192 332.937 301.005 327.376 295.831L326.21 294.717L324.919 295.019C317.705 296.867 312.463 303.611 313.122 312.267C313.643 319.119 317.777 327.174 327.633 334.722L329.087 335.867ZM325.786 299.261C320.249 301.054 316.333 306.336 316.557 313.054C316.734 318.723 319.853 325.392 327.309 331.958C328.201 329.956 329.612 325.776 330.426 320.827C330.871 318.105 331.194 315.165 330.97 312.147C330.651 307.772 329.322 303.248 325.786 299.261Z" fill="#343D33"/>
<path fill-rule="evenodd" clip-rule="evenodd" d="M284.663 335.082L284.332 333.649C283.299 328.107 282.21 321.66 280.169 315.256C278.793 310.937 276.953 306.649 274.729 302.708C270.359 294.965 264.283 288.545 255.903 285.334L253.52 284.392L253.423 286.454C253.27 292.564 252.551 307.632 260.614 319.586C264.984 326.061 271.852 331.702 282.734 334.552L284.663 335.082ZM280.721 331.834C279.308 326.739 277.57 320.991 275.51 315.31C274.058 311.304 272.47 307.328 270.449 303.664C267.318 297.981 263.288 293.006 257.621 289.983C257.21 296.552 256.85 308.666 263.25 318.716C266.706 324.145 272.18 328.922 280.721 331.834Z" fill="#343D33"/>
<path fill-rule="evenodd" clip-rule="evenodd" d="M296.484 269.689L295.197 268.951C290.88 266.309 284.222 263.316 276.731 260.888C272.726 259.591 268.487 258.471 264.265 257.616C252.506 255.247 240.943 254.976 234.464 258.285L232.409 259.299L234.641 261.289C246.506 271.688 257.825 277.199 267.5 279.212C281.086 282.03 291.48 277.996 295.747 270.871L296.484 269.689ZM292.694 270.593C287.807 268.232 280.663 265.92 272.991 263.974C268.331 262.787 263.466 261.703 258.776 261.011C251.445 259.927 244.53 259.655 239.632 261.061C249.525 269.529 259.012 274.259 267.299 276.189C278.915 278.897 288.152 276.142 292.694 270.593Z" fill="#343D33"/>
<path fill-rule="evenodd" clip-rule="evenodd" d="M143.571 290.438L144.041 289.144C145.191 286.54 146.237 283.846 147.075 281.089C147.941 278.229 148.629 275.329 149.007 272.442C149.587 268.046 149.502 263.699 148.826 259.752C147.198 250.255 141.913 242.863 131.818 240.47L129.465 239.89L129.77 241.993C130.221 244.828 128.767 248.173 127.534 252.121C125.94 257.211 124.598 263.158 126.805 269.982C128.651 275.699 132.955 282.072 141.851 289.051L143.571 290.438ZM141.312 286.091C141.925 283.838 142.432 281.535 142.88 279.224C143.433 276.368 143.81 273.495 144.073 270.701C144.461 266.609 144.544 262.677 143.991 259.065C142.996 252.618 140.139 247.269 133.976 244.839C133.688 247.526 132.457 250.577 131.234 253.98C129.601 258.53 128.055 263.825 129.838 270.041C131.221 274.842 134.586 280.164 141.312 286.091Z" fill="#343D33"/>
<path fill-rule="evenodd" clip-rule="evenodd" d="M176.501 241.381L174.862 240.686C170.718 238.764 165.716 234.064 159.95 229.34C157.423 227.264 154.759 225.184 152.005 223.291C149.125 221.313 146.136 219.563 143.117 218.165C135.239 214.521 127.069 213.324 119.334 218.023L117.522 219.091L119.591 220.943C132.773 232.469 144.151 240.653 153.244 244.839C163.984 249.786 171.686 249.389 175.658 242.723L176.501 241.381ZM172.524 242.517C168.301 240.407 163.14 236.416 157.54 232.215C155.052 230.344 152.477 228.438 149.846 226.662C147.279 224.925 144.673 223.296 142.011 222.014C136.201 219.228 130.188 218.065 124.292 220.558C135.787 230.885 145.795 238.339 153.978 242.34C162.362 246.439 168.715 246.772 172.524 242.517Z" fill="#343D33"/>
<path fill-rule="evenodd" clip-rule="evenodd" d="M225.621 304.005L226.221 303.18C227.188 302.03 230.285 297.304 231.775 290.947C232.461 287.998 232.721 284.677 232.425 281.307C231.901 275.325 229.469 269.134 223.911 263.969L222.739 262.851L221.447 263.152C214.239 265.004 208.994 271.739 209.65 280.4C210.171 287.252 214.309 295.303 224.162 302.855L225.621 304.005ZM222.321 267.398C216.783 269.191 212.868 274.473 213.085 281.187C213.269 286.86 216.391 293.526 223.847 300.091C224.735 298.093 226.15 293.909 226.96 288.965C227.409 286.239 227.728 283.302 227.505 280.285C227.18 275.906 225.85 271.382 222.321 267.398Z" fill="#343D33"/>
<path fill-rule="evenodd" clip-rule="evenodd" d="M438.08 228.04C433.329 225.751 429.405 226.475 426.528 229.099C425.029 230.462 423.91 232.442 423.153 234.815C422.454 237.019 422.118 239.603 422.175 242.397C422.288 248.271 424.136 255.072 427.562 261.345L428.679 263.445L430.785 263.11C438.931 261.598 443.859 256.023 445.782 249.639C447.116 245.178 447.014 240.376 445.632 236.427C444.256 232.497 441.665 229.386 438.08 228.04ZM430.812 258.325C436.699 256.8 440.423 252.584 442.199 247.838C443.905 243.28 443.888 238.232 442.088 234.457C441.138 232.465 439.712 230.842 437.722 229.994C434.819 229.07 432.712 229.718 431.106 231.201C429.667 232.533 428.78 234.62 428.217 237.141C427.78 239.126 427.59 241.38 427.641 243.795C427.734 248.312 428.687 253.407 430.812 258.325Z" fill="#343D33"/>
<path fill-rule="evenodd" clip-rule="evenodd" d="M397.226 191.29L396.415 191.163C388.846 189.721 382.648 191.259 378.144 194.71C375.192 196.972 373.02 200.101 371.603 203.629C367.821 213.049 369.602 225.465 376.774 233.937L378.158 235.604L379.689 234.857C387.225 231.014 393.658 225.348 397.306 218.352C401.135 210.989 401.921 202.184 397.744 192.531L397.226 191.29ZM396.004 193.992C390.004 193.473 385.389 195.317 381.917 198.332C379.479 200.443 377.606 203.149 376.347 206.213C373.257 213.724 373.698 223.313 378.569 230.575C385.169 227.203 390.815 222.375 394.234 216.418C397.878 210.073 399.007 202.465 396.004 193.992Z" fill="#343D33"/>
<path fill-rule="evenodd" clip-rule="evenodd" d="M356.725 214.685L355.985 215.081C351.689 216.993 348.977 219.376 347.633 222.091C346.378 224.633 346.318 227.472 347.075 230.326C348.726 236.582 354.659 243.185 362.389 248.649L364.241 249.996L365.217 248.654C369.326 242.627 370.194 237.384 369.322 232.825C367.957 225.645 362.304 220.118 357.868 215.83L356.725 214.685ZM357.493 218.222C354.679 220.203 353.053 222.414 352.196 224.666C351.466 226.589 351.389 228.571 351.912 230.62C353.101 235.3 357.143 240.195 362.539 244.561C365.666 240.027 366.544 235.998 366.035 232.364C365.236 226.631 361.094 221.978 357.493 218.222Z" fill="#343D33"/>
<path fill-rule="evenodd" clip-rule="evenodd" d="M313.823 174.464L313.014 174.154C305.427 171.016 298.182 171.03 292.099 173.264C288.269 174.663 284.942 176.987 282.248 179.825C274.822 187.632 272.392 199.514 277.399 208.762L278.363 210.581L280.184 210.289C290.988 208.394 301.78 203.281 308.242 195.597C312.816 190.147 315.236 183.429 313.997 175.687L313.823 174.464ZM311.743 176.562C305.501 174.614 299.866 175.3 295.027 177.362C291.739 178.767 288.816 180.819 286.397 183.319C280.378 189.566 277.387 198.505 280.28 206.21C289.995 204.442 299.552 200.045 305.56 193.45C309.757 188.842 312.226 183.169 311.743 176.562Z" fill="#343D33"/>
<path fill-rule="evenodd" clip-rule="evenodd" d="M308.58 234.281L307.858 233.553C303.102 228.384 298.054 224.536 292.772 222.032C288.902 220.199 284.908 219.107 280.89 218.694C272.777 217.858 264.499 219.901 256.326 224.479L253.869 225.8L256.989 227.734C266.957 233.755 279.104 241.258 289.979 242.242C296.616 242.843 302.847 241.118 307.816 235.15L308.58 234.281ZM304.938 234.373C300.652 230.46 296.26 227.689 291.812 225.811C288.523 224.421 285.209 223.558 281.835 223.204C275.278 222.518 268.531 223.711 261.77 226.76C270.358 232.235 280.235 238.265 289.385 239.371C295.043 240.064 300.379 238.819 304.938 234.373Z" fill="#343D33"/>
<path fill-rule="evenodd" clip-rule="evenodd" d="M259.854 181.37L259.118 181.774C254.547 183.868 251.684 187.068 250.357 190.886C249.373 193.714 249.28 196.897 249.824 200.121C251.233 208.443 257.126 217.184 264.838 222.661L266.703 224.017L267.685 222.666C271.988 216.412 272.877 209.741 271.911 203.553C270.508 194.574 265.234 186.638 261.004 182.519L259.854 181.37ZM260.581 184.937C257.521 187.114 255.841 189.995 255.025 193.136C254.393 195.558 254.316 198.147 254.749 200.812C255.775 207.125 259.568 213.774 264.993 218.502C268.33 213.459 269.176 208.078 268.601 203.007C267.766 195.681 264.046 189.01 260.581 184.937Z" fill="#343D33"/>
<path fill-rule="evenodd" clip-rule="evenodd" d="M228.557 136.926L226.928 136.307C219.238 133.155 210.874 133.506 203.703 136.394C199.477 138.091 195.708 140.714 192.691 143.828C183.791 153.029 181.705 166.728 193.192 177.234L193.912 177.9L194.804 178.004C203.023 178.876 208.598 176.837 212.618 173.042C220.867 165.255 222.32 149.787 227.847 138.33L228.557 136.926ZM224.849 138.481C218.613 136.809 212.322 137.932 206.741 140.484C203.013 142.182 199.586 144.528 196.817 147.339C189.43 154.833 186.325 165.523 195.015 174.376C204.054 175.272 209.337 171.862 213.024 166.557C218.316 158.943 220.451 147.583 224.849 138.481Z" fill="#343D33"/>
<path fill-rule="evenodd" clip-rule="evenodd" d="M149.144 130.823L148.627 131.094C144.009 133.229 141.725 136.679 141.106 140.753C140.822 142.618 140.905 144.627 141.33 146.708C143.319 156.406 152.223 167.527 160.938 173.747L162.156 174.633L163.241 174.189C169.499 171.495 170.783 165.24 168.849 157.988C166.311 148.449 158.254 137.276 150.295 131.66L149.144 130.823ZM150.333 134.106C147.029 136.385 145.782 139.588 145.751 143.149C145.738 145.756 146.405 148.565 147.569 151.428C150.349 158.267 155.865 165.365 161.704 170.066C165.886 167.833 166.598 163.09 165.382 157.736C163.493 149.453 157.093 139.675 150.333 134.106Z" fill="#343D33"/>
</g>
<defs>
<clipPath id="clip0_428_791">
<rect width="480.286" height="277.901" fill="white" transform="translate(135.542) rotate(29.1918)"/>
</clipPath>
</defs>
</svg>
