<svg width="534" height="462" viewBox="0 0 534 462" fill="none" xmlns="http://www.w3.org/2000/svg">
<g opacity="0.07" clip-path="url(#clip0_305_2994)">
<path fill-rule="evenodd" clip-rule="evenodd" d="M615.427 459.767C615.427 459.767 606.988 439.958 583.835 414.202C573.316 402.493 559.756 389.611 542.522 376.683C531.563 368.464 519.139 360.228 505.057 352.266C487.383 342.269 467.152 332.603 443.807 324.311C366.907 296.586 275.926 258.012 197.011 206.942C143.567 172.354 95.6841 132.049 61.3254 85.7057C56.845 79.6586 53.5739 74.2159 50.6694 68.1321C48.049 62.6714 45.722 56.6977 43.0466 49.2762C42.6526 48.2409 43.1748 47.0771 44.2193 46.6831C45.2546 46.2983 46.4181 46.8208 46.8029 47.8653C49.6158 55.0577 52.0345 60.8481 54.7283 66.1256C57.6602 71.8612 60.9133 76.9831 65.3479 82.6546C100.348 127.513 148.615 165.986 202.096 198.888C281.359 247.64 372.148 284.033 448.846 309.862C473.273 318.218 494.603 327.802 512.992 338.265C527.771 346.667 540.689 355.563 551.932 364.552C569.624 378.726 583.23 393.038 593.528 406.03C616.388 434.873 623.15 456.972 623.15 456.972C623.92 459.098 622.82 461.453 620.685 462.231C618.56 463.001 616.196 461.893 615.427 459.767Z" fill="white"/>
<path fill-rule="evenodd" clip-rule="evenodd" d="M80.9233 109.729C80.9233 109.729 79.0635 108.831 76.0491 107.127C74.6656 106.339 73.0527 105.422 71.3119 104.295C67.3538 101.739 62.6996 98.349 57.2938 95.6094C51.9339 92.8974 46.0882 90.5425 40.0227 89.5804C39.3264 89.5255 38.8135 88.9117 38.8685 88.2154C38.9235 87.519 39.5372 87.0062 40.2336 87.0611C48.4705 87.1528 56.735 89.4982 63.9458 92.4576C66.8136 93.6396 69.4978 94.8946 71.9075 96.214C73.7491 97.2218 75.4721 98.2021 76.9198 99.2466C78.4224 100.337 79.6408 101.437 80.6487 102.408C82.9301 104.589 84.0477 106.055 84.0477 106.055C85.0647 106.916 85.1841 108.437 84.3228 109.454C83.4615 110.471 81.9403 110.59 80.9233 109.729Z" fill="white"/>
<path fill-rule="evenodd" clip-rule="evenodd" d="M140.48 165.48C140.48 165.48 138.757 165.919 135.725 166.194C134.378 166.313 132.793 166.405 131.006 166.313C129.283 166.213 127.405 165.892 125.417 165.507C122.815 165.012 120.057 164.288 117.208 163.381C110.079 161.118 102.585 157.674 96.5191 152.414C95.9602 151.993 95.841 151.205 96.2624 150.646C96.6747 150.087 97.4718 149.968 98.0307 150.38C103.042 153.55 108.742 155.447 114.313 156.748C119.956 158.058 125.453 158.361 129.934 158.856C131.904 159.075 133.645 159.377 135.138 159.634C138.409 160.193 140.333 160.66 140.333 160.66C141.662 160.614 142.77 161.659 142.816 162.988C142.862 164.316 141.808 165.434 140.48 165.48Z" fill="white"/>
<path fill-rule="evenodd" clip-rule="evenodd" d="M104.681 131.553C104.681 131.553 104.03 130.161 103.279 127.641C102.94 126.514 102.573 125.195 102.344 123.665C102.124 122.19 102.07 120.55 102.024 118.8C101.969 116.491 102.051 114.017 102.225 111.47C102.683 104.451 103.892 97.0572 106.549 91.4591C106.797 90.8085 107.521 90.4788 108.181 90.717C108.831 90.9644 109.161 91.6971 108.923 92.3477C107.988 95.7377 107.732 99.6502 107.759 103.7C107.787 108.199 108.318 112.752 108.831 116.866C109.079 118.891 109.408 120.779 109.555 122.492C109.646 123.683 109.647 124.764 109.638 125.745C109.61 128.832 109.427 130.674 109.427 130.674C109.665 131.984 108.804 133.239 107.493 133.486C106.183 133.725 104.919 132.854 104.681 131.553Z" fill="white"/>
<path fill-rule="evenodd" clip-rule="evenodd" d="M246.563 235.922C246.563 235.922 241.414 236.398 233.076 237.131C229.191 237.47 224.637 237.883 219.58 238.258C207.898 239.138 193.605 240.091 179.229 242.5C163.964 245.066 148.6 248.905 136.148 254.971C135.534 255.291 134.773 255.053 134.443 254.439C134.123 253.825 134.361 253.056 134.975 252.735C150.322 244.058 170.479 238.488 189.463 234.978C196.546 233.677 203.454 232.633 209.895 231.891C214.797 231.332 219.406 230.864 223.611 230.663C227.936 230.452 231.811 230.47 235.091 230.525C242.284 230.654 246.6 231.103 246.6 231.103C247.937 231.112 249.009 232.202 248.991 233.531C248.982 234.859 247.891 235.931 246.563 235.922Z" fill="white"/>
<path fill-rule="evenodd" clip-rule="evenodd" d="M177.121 270.317C175.756 264.435 177.249 257.508 179.585 251.232C180.575 248.584 181.711 246.101 182.893 243.883C183.461 242.821 184.001 241.804 184.624 240.924C185.275 240.017 185.953 239.247 186.604 238.588C188.656 236.48 190.104 235.473 190.104 235.473C190.937 234.447 192.44 234.291 193.466 235.124C194.492 235.958 194.648 237.461 193.815 238.487C193.815 238.487 193.338 239.797 192.294 241.941C191.817 242.903 191.295 244.039 190.562 245.24C189.481 246.999 188.014 248.849 186.677 250.948C184.89 253.77 183.085 256.793 181.775 259.982C180.392 263.344 179.43 266.725 179.549 269.996C179.631 270.665 179.164 271.279 178.495 271.37C177.826 271.462 177.212 270.986 177.121 270.317Z" fill="white"/>
<path fill-rule="evenodd" clip-rule="evenodd" d="M239.792 321.305C254.021 307.772 274.545 298.436 294.427 292.15C303.196 289.383 311.817 287.194 319.715 285.544C323.582 284.738 327.274 284.024 330.728 283.529C334.32 283.007 337.655 282.676 340.624 282.447C349.841 281.733 355.595 281.907 355.595 281.907C356.914 281.834 358.041 282.842 358.114 284.152C358.197 285.471 357.189 286.598 355.87 286.681C355.87 286.681 349.108 287.661 338.58 289.576C336.766 289.906 334.842 290.245 332.817 290.593C330.976 290.895 329.051 291.198 327.054 291.519C314.52 293.516 299.32 296.429 284.385 301.212C268.598 306.27 253.105 313.224 241.432 323.119C240.928 323.577 240.159 323.531 239.7 323.027C239.251 322.524 239.297 321.754 239.792 321.305Z" fill="white"/>
<path fill-rule="evenodd" clip-rule="evenodd" d="M300.175 329.093C298.856 322.9 301.66 314.012 305.471 305.803C306.91 302.679 308.486 299.682 310.071 296.998C310.822 295.715 311.546 294.479 312.334 293.407C313.149 292.298 313.983 291.345 314.753 290.511C317.19 287.909 318.903 286.553 318.903 286.553C319.728 285.518 321.23 285.344 322.266 286.159C323.292 286.984 323.466 288.486 322.65 289.522C322.65 289.522 321.927 291.171 320.497 293.81C319.847 295.019 319.096 296.43 318.115 297.923C316.668 300.15 314.78 302.514 313.003 305.134C310.566 308.717 308.083 312.556 306.177 316.386C303.96 320.848 302.392 325.145 302.594 328.773C302.686 329.442 302.219 330.056 301.55 330.148C300.881 330.239 300.267 329.762 300.175 329.093Z" fill="white"/>
<path fill-rule="evenodd" clip-rule="evenodd" d="M395.638 385.028C408.475 366.126 425.966 355.104 443.109 348.745C451.648 345.575 460.105 343.568 467.856 342.377C471.686 341.791 475.342 341.36 478.759 341.186C482.305 341.003 485.576 341.058 488.49 341.205C497.478 341.663 503.058 342.973 503.058 342.973C504.368 343.156 505.275 344.365 505.082 345.676C504.899 346.977 503.69 347.884 502.389 347.701C502.389 347.701 497.001 347.463 488.48 347.884C485.704 348.012 482.589 348.241 479.208 348.489C474.966 348.8 470.293 349.139 465.364 349.845C458.923 350.77 452.024 352.154 445.015 354.344C428.293 359.557 410.958 369.095 397.617 386.458C397.224 387.007 396.454 387.126 395.914 386.732C395.364 386.338 395.235 385.569 395.638 385.028Z" fill="white"/>
<path fill-rule="evenodd" clip-rule="evenodd" d="M181.462 103.16C177.092 113.174 176.533 126.35 177.541 139.58C178.429 151.326 180.72 163.063 182.827 172.693C183.157 174.214 183.478 175.67 183.753 177.081C184.064 178.62 184.33 180.096 184.577 181.488C185.979 189.57 186.941 194.756 186.941 194.756C187.326 196.011 186.62 197.349 185.356 197.733C184.101 198.118 182.763 197.413 182.378 196.149C182.378 196.149 180.234 191.146 177.824 183.083C177.412 181.69 177.009 180.206 176.634 178.639C176.295 177.201 175.983 175.698 175.699 174.14C173.839 164.162 172.355 151.931 172.245 139.809C172.126 125.919 173.912 112.203 179.254 102.097C179.547 101.492 180.28 101.236 180.894 101.529C181.499 101.822 181.755 102.555 181.462 103.16Z" fill="white"/>
<path fill-rule="evenodd" clip-rule="evenodd" d="M291.735 171.536C288.657 184.382 290.902 198.473 295.226 211.814C299.276 224.284 305.296 236.002 310.646 245.449C311.489 246.942 312.305 248.372 313.075 249.764C313.917 251.276 314.705 252.733 315.447 254.116C319.717 262.069 322.695 267.099 322.695 267.099C323.483 268.153 323.254 269.656 322.2 270.434C321.137 271.222 319.644 271.002 318.856 269.939C318.856 269.939 314.788 265.432 309.52 257.708C308.612 256.38 307.687 254.941 306.761 253.401C305.919 252 305.094 250.507 304.27 248.949C298.992 239.008 293.559 226.446 290.15 213.298C286.458 199.05 285.239 184.116 289.371 170.886C289.555 170.235 290.223 169.85 290.874 170.033C291.524 170.208 291.909 170.886 291.735 171.536Z" fill="white"/>
<path fill-rule="evenodd" clip-rule="evenodd" d="M395.186 211.541C393.638 225.165 395.617 238.945 399.034 251.69C402.489 264.572 407.574 276.309 412.118 285.701C412.851 287.222 413.566 288.678 414.235 290.08C414.968 291.629 415.646 293.104 416.287 294.496C420.007 302.642 422.618 307.654 422.618 307.654C423.351 308.753 423.049 310.228 421.949 310.961C420.859 311.694 419.375 311.392 418.642 310.292C418.642 310.292 415.554 306.554 411.44 299.884C410.121 297.74 408.71 295.303 407.317 292.573C405.989 289.952 404.724 287.048 403.451 283.96C400.876 277.72 398.384 270.665 396.322 263.115C391.943 247.054 389.542 228.766 392.767 211.184C392.859 210.515 393.482 210.056 394.151 210.148C394.82 210.249 395.287 210.872 395.186 211.541Z" fill="white"/>
<path fill-rule="evenodd" clip-rule="evenodd" d="M437.663 242.491C428.693 248.612 423.15 255.758 419.595 262.584C418.001 265.654 416.874 268.659 415.994 271.454C415.298 273.653 414.858 275.732 414.391 277.601C414.025 279.113 413.63 280.478 413.328 281.706C412.403 285.527 412.009 287.891 412.009 287.891C412.091 289.201 411.083 290.337 409.773 290.42C408.454 290.502 407.317 289.494 407.244 288.184C407.244 288.184 406.576 285.408 406.722 280.808C406.759 279.361 406.915 277.748 407.254 276.007C407.584 274.349 408.133 272.608 408.793 270.794C410.094 267.239 411.936 263.409 414.51 259.561C419.137 252.689 426.018 245.753 436.408 240.384C436.995 240.045 437.746 240.228 438.085 240.815C438.433 241.392 438.24 242.143 437.663 242.491Z" fill="white"/>
<path fill-rule="evenodd" clip-rule="evenodd" d="M38.8626 0.0649511C47.0538 -0.493951 53.3853 2.59327 58.0306 7.8158C60.9992 11.1417 63.1796 15.4299 64.6731 20.2401C66.1207 24.9129 66.854 30.1173 66.9273 35.4773C67.0831 47.3883 63.9582 60.0688 58.7173 69.7717L57.5446 72.0075L55.0891 71.3845C42.2435 67.857 32.6602 53.3343 28.418 38.0698C25.2936 26.8093 25 15.3016 27.9594 8.11834C30.0484 3.04241 33.6493 -0.0449969 38.8626 0.0649511ZM54.182 64.4026C44.2317 60.5911 36.9753 48.7627 33.1088 36.6684C29.8653 26.5349 28.9951 16.0987 31.4048 9.456C32.7517 5.76358 35.1244 3.30815 38.8626 3.22569C44.3784 3.61967 48.5197 5.89176 51.6991 9.24518C54.8234 12.5436 56.8211 17.0152 58.1039 22.0911C59.1575 26.2691 59.6615 30.8412 59.7256 35.569C59.8356 45.4185 57.9661 55.8908 54.182 64.4026Z" fill="white"/>
<path fill-rule="evenodd" clip-rule="evenodd" d="M1.38513 75.1772C3.10765 68.6261 8.11912 65.2358 14.5694 64.2829C18.0419 63.7699 21.9636 64.1182 26.0134 65.1352C29.8524 66.0972 33.8103 67.7278 37.5943 69.8992C46.0054 74.7278 53.5369 82.2136 57.6783 90.6246L59.2268 93.6668L56.1024 95.0224C46.7294 98.8431 27.7816 100.896 14.707 97.2492C7.95433 95.3709 2.75021 91.9991 0.816959 86.8957C-0.392467 83.7256 -0.419846 79.85 1.38513 75.1772ZM50.1193 90.4871C41.0394 93.5656 26.4532 95.2425 15.8249 92.842C7.12065 90.8629 1.16535 86.0159 4.363 76.2397C6.0672 72.529 9.14563 70.7976 12.838 70.2387C16.2098 69.7256 20.0764 70.3761 24.1444 71.6955C27.3971 72.74 30.732 74.2606 34.003 76.148C40.2242 79.7305 46.1612 84.6507 50.1193 90.4871Z" fill="white"/>
<path fill-rule="evenodd" clip-rule="evenodd" d="M42.36 131.507L44.183 131.086C50.8349 129.262 58.5132 127.952 66.3378 128.071C71.3954 128.153 76.4898 128.859 81.3642 130.242C93.3302 133.66 103.958 141.219 109.914 154.642L111.123 157.281L108.457 158.435C99.0838 162.329 83.6549 165.554 69.6915 161.138C58.8066 157.693 48.7185 149.703 43.1753 133.724L42.36 131.507ZM47.0972 134.943C54.1888 133.843 62.2421 133.706 70.1858 134.732C75.5825 135.429 80.952 136.638 85.9179 138.846C92.8813 141.943 99.0748 146.845 103.372 154.395C94.8692 157.675 82.4819 160.066 70.9648 156.85C61.5185 154.202 52.7137 147.742 47.0972 134.943Z" fill="white"/>
<path fill-rule="evenodd" clip-rule="evenodd" d="M84.7868 255.209L86.0053 254.164C91.3287 249.171 97.7148 244.965 104.761 242.024C109.369 240.091 114.262 238.726 119.219 237.956C131.872 235.986 144.974 237.901 155.932 244.214L158.717 245.771L156.885 248.373C151.974 255.108 138.799 267.807 123.104 271.105C111.403 273.561 98.2738 270.996 86.2162 256.831L84.7868 255.209ZM90.147 256.39C95.1313 252.744 100.903 249.922 106.978 247.796C111.266 246.294 115.71 245.176 120.218 244.489C130.406 242.941 140.915 243.655 150.151 247.769C144.846 254.283 134.437 263.693 122.105 266.708C112.136 269.145 100.949 267.303 90.147 256.39Z" fill="white"/>
<path fill-rule="evenodd" clip-rule="evenodd" d="M150.475 304.575V302.88C150.347 300.387 150.668 291.005 153.728 281C155.139 276.364 157.237 271.645 159.913 267.403C164.659 259.871 171.411 253.934 180.491 252.413L182.415 252.056L183.46 253.724C189.177 263.262 189.507 277.454 182.736 288.449C177.376 297.153 167.646 303.942 152.702 304.455L150.475 304.575ZM179.611 258.579C183.734 266.404 183.808 277.335 178.833 286.149C174.646 293.598 166.885 299.517 154.974 301.056C155.524 297.492 157.109 290.492 159.821 283.043C161.314 278.947 163.083 274.678 165.437 270.839C168.846 265.268 173.344 260.485 179.611 258.579Z" fill="white"/>
<path fill-rule="evenodd" clip-rule="evenodd" d="M194.297 346.949L195.634 345.346C200.564 338.905 206.189 331.3 212.713 324.685C217.111 320.223 221.939 316.255 226.896 313.13C236.636 306.992 247.099 304.298 257.535 308.174L260.522 309.237L259.157 312.104C254.979 320.469 245.01 341.433 228.692 349.624C219.85 354.059 209.167 354.929 196.55 348.122L194.297 346.949ZM200.435 346.436C205.42 340.966 211.183 334.937 217.211 329.312C221.463 325.344 225.824 321.551 230.387 318.601C237.461 314.02 244.909 311.271 252.569 312.746C248.318 321.981 240.09 338.62 226.741 345.877C219.53 349.798 210.816 350.87 200.435 346.436Z" fill="white"/>
<path fill-rule="evenodd" clip-rule="evenodd" d="M229.089 247.464L230.866 247.73C236.941 248.399 245.544 250.882 254.56 254.941C259.38 257.113 264.3 259.751 269.018 262.729C282.148 271.039 293.601 281.979 297.568 292.763L298.851 296.135L295.269 296.63C276.349 299.012 261.423 295.356 250.575 288.604C235.347 279.112 228.081 263.526 228.97 249.773L229.089 247.464ZM232.14 252.385C238.572 253.988 247.167 257.864 256.017 262.747C261.396 265.707 266.902 269.005 271.96 272.661C279.867 278.369 286.794 284.765 290.569 291.444C274.938 293.157 262.348 290.243 252.911 284.737C239.681 277.022 232.635 264.287 232.14 252.385Z" fill="white"/>
<path fill-rule="evenodd" clip-rule="evenodd" d="M363.324 424.857L363.782 422.658C364.505 418.031 365.394 413.386 366.53 408.86C367.712 404.169 369.096 399.597 370.772 395.345C373.32 388.867 376.481 383.104 379.935 378.459C388.245 367.281 398.626 362.508 410.152 369.16L412.855 370.68L411.069 373.209C408.622 376.581 407.669 382.5 406.075 389.014C404.023 397.416 401.118 406.725 394.136 413.743C388.291 419.625 379.587 423.987 365.98 424.674L363.324 424.857ZM368.601 421.22C369.6 417.592 370.736 414 371.936 410.454C373.421 406.074 375.088 401.841 376.81 397.828C379.33 391.946 382.033 386.577 385.13 382.262C390.664 374.565 397.233 370.167 404.957 372.925C403.336 376.819 402.373 382.124 401.155 387.896C399.524 395.611 397.279 404.242 391.141 410.857C386.394 415.96 379.348 419.827 368.601 421.22Z" fill="white"/>
<path fill-rule="evenodd" clip-rule="evenodd" d="M365.989 326.7L368.078 327.369C373.475 328.835 381.675 327.406 390.636 326.692C394.567 326.371 398.634 326.178 402.656 326.325C406.862 326.48 411.013 327.049 414.943 328.121C425.196 330.925 434.001 337.301 438.206 351.182L439.215 354.389L435.888 354.856C414.888 357.468 398.011 357.349 386.192 354.087C372.228 350.239 365.009 342.176 365.861 329.33L365.989 326.7ZM369.058 332.115C374.666 333.407 382.518 333.087 390.947 332.913C394.695 332.83 398.552 332.784 402.373 332.968C406.102 333.142 409.794 333.499 413.294 334.379C420.926 336.312 427.606 340.627 431.582 349.744C413.074 352.392 398.048 352.63 387.246 350.009C376.178 347.325 369.755 341.562 369.058 332.115Z" fill="white"/>
<path fill-rule="evenodd" clip-rule="evenodd" d="M273.805 362.884V361.189C273.677 358.697 274.007 349.314 277.058 339.309C278.478 334.673 280.576 329.954 283.252 325.712C287.998 318.181 294.75 312.234 303.821 310.722L305.754 310.365L306.799 312.032C312.507 321.57 312.846 335.754 306.075 346.758C300.715 355.462 290.985 362.243 276.041 362.765L273.805 362.884ZM302.941 316.889C307.064 324.713 307.138 335.644 302.172 344.458C297.976 351.907 290.215 357.817 278.304 359.356C278.854 355.801 280.439 348.792 283.151 341.352C284.644 337.247 286.413 332.987 288.767 329.148C292.185 323.577 296.684 318.795 302.941 316.889Z" fill="white"/>
<path fill-rule="evenodd" clip-rule="evenodd" d="M120.678 53.0323C126.927 54.599 130.235 59.4093 131.178 65.7496C131.673 69.048 131.362 72.8049 130.418 76.7356C129.538 80.3822 128.036 84.1844 126.002 87.8859C121.732 95.6739 115.116 103.013 107.338 108.098L104.763 109.83L102.949 107.32C96.0863 97.3234 95.2344 85.009 97.8823 74.5456C99.7422 67.2433 103.242 60.8848 107.383 56.9267C111.507 52.9869 116.234 51.3373 120.678 53.0323ZM106.311 100.86C101.657 93.0536 101.016 83.7444 102.647 75.6266C104.214 67.8295 107.805 61.0588 112.23 57.7421C114.567 55.9921 117.105 55.2039 119.643 56.0102C123.124 57.6044 124.719 60.5363 125.232 64.1004C125.69 67.2981 125.076 70.9721 123.839 74.9119C122.859 78.0088 121.448 81.225 119.689 84.4227C116.399 90.4057 111.864 96.3246 106.311 100.86Z" fill="white"/>
<path fill-rule="evenodd" clip-rule="evenodd" d="M186.49 43.557L187.37 44.1805C195.762 49.6413 200.71 57.768 202.653 66.8112C203.926 72.7393 203.825 79.0706 202.708 85.2002C199.721 101.564 189.193 116.517 176.21 120.897L173.682 121.785L172.719 119.284C168.101 106.75 165.848 92.8413 167.249 79.8674C168.734 66.2247 174.203 53.6174 185.107 44.7208L186.49 43.557ZM185.766 48.3859C191.979 53.5535 195.167 60.5445 196.413 67.9934C197.293 73.216 197.201 78.6856 196.257 84.0364C193.949 97.1569 186.728 109.618 176.842 114.62C172.802 103.635 170.722 91.6228 171.611 80.2706C172.555 68.1764 176.842 56.8427 185.766 48.3859Z" fill="white"/>
<path fill-rule="evenodd" clip-rule="evenodd" d="M209.369 114.611L209.809 115.867C212.64 122.638 213.593 128.492 212.979 133.458C212.402 138.103 210.45 141.979 207.692 145.076C201.654 151.874 191.2 154.953 179.802 154.742H177.044V151.985C177.31 139.863 180.178 131.965 184.255 126.687C190.669 118.368 200.088 116.462 207.445 115.033L209.369 114.611ZM206.116 118.615C207.454 124.03 207.472 128.593 206.712 132.459C206.061 135.758 204.733 138.498 202.772 140.743C198.301 145.873 190.898 148.503 182.551 149.098C182.716 139.945 184.713 133.669 187.783 129.28C192.62 122.353 199.95 120.145 206.116 118.615Z" fill="white"/>
<path fill-rule="evenodd" clip-rule="evenodd" d="M279.633 102.471L280.641 102.846C290.252 106.044 297.298 113.145 301.641 122.097C304.38 127.722 305.975 134.099 306.589 140.549C308.293 158.306 302.246 176.658 290.82 184.199L288.594 185.702L287.027 183.53C277.846 170.419 270.956 152.992 270.104 136.344C269.509 124.543 271.909 113.145 278.598 103.946L279.633 102.471ZM280.174 107.327C287.632 110.809 292.634 117.241 295.887 124.745C298.095 129.848 299.488 135.464 300.074 141.191C301.513 155.475 298.095 170.419 289.821 177.95C281.612 166.076 275.418 150.821 274.236 136.078C273.412 125.78 275.024 115.738 280.174 107.327Z" fill="white"/>
<path fill-rule="evenodd" clip-rule="evenodd" d="M242.382 188.029L243.601 187.754C251.893 185.455 259.534 185.216 266.452 187.012C271.519 188.332 276.182 190.768 280.388 194.14C288.881 200.948 295.496 211.787 300.215 225.934L301.672 230.112L297.265 229.663C283.292 228.013 266.149 226.227 254.861 216.918C247.971 211.237 243.125 202.826 242.511 189.944L242.382 188.029ZM245.864 191.712C252.809 190.64 259.049 191.208 264.711 193.032C268.898 194.379 272.737 196.458 276.274 199.28C283.146 204.769 288.872 212.969 293.297 223.679C281.056 222.644 267.167 221.096 257.473 213.638C251.472 209.038 247.156 202.148 245.864 191.712Z" fill="white"/>
<path fill-rule="evenodd" clip-rule="evenodd" d="M327.305 164.519L327.736 165.783C330.704 173.067 331.227 180.168 329.816 186.6C328.771 191.364 326.608 195.735 323.796 199.538C316.53 209.35 304.601 215.343 293.212 215.168H290.436V212.392C290.674 199.775 294.531 189.935 299.855 182.56C307.578 171.858 318.335 166.342 325.371 164.941L327.305 164.519ZM324.071 168.605C325.509 174.524 325.106 180.04 323.676 185.061C322.577 188.937 320.818 192.492 318.509 195.653C313.039 203.138 304.637 208.37 296.007 209.424C296.327 199.382 299.314 191.319 303.464 185.061C309.466 176.027 317.813 170.694 324.071 168.605Z" fill="white"/>
<path fill-rule="evenodd" clip-rule="evenodd" d="M389.257 135.356L391.282 136.116C401.004 139.397 408.901 148.045 413.84 158.939C416.753 165.353 418.568 172.564 419.301 179.701C421.454 200.775 413.785 221.234 395.158 224.129L393.985 224.322L393.042 223.589C384.42 216.727 380.434 208.535 379.206 199.501C376.687 180.966 386.224 158.747 388.955 137.939L389.257 135.356ZM391.768 141.073C399.024 144.921 404.357 152.581 407.985 161.468C410.413 167.396 412.09 173.902 412.796 180.388C414.683 197.687 410.138 215.096 395.405 218.504C385.968 210.872 383.238 201.123 383.403 190.385C383.641 174.974 389.605 157.611 391.768 141.073Z" fill="white"/>
<path fill-rule="evenodd" clip-rule="evenodd" d="M470.921 204.788L471.232 205.658C474.219 213.043 474 219.915 471.718 225.998C470.674 228.784 469.171 231.404 467.284 233.786C458.479 244.882 441.931 251.13 429.04 250.974H427.226L426.484 249.316C422.297 239.577 425.476 229.91 432.494 222.049C441.721 211.705 457.48 204.559 469.207 204.788H470.921ZM467.439 208.04C469.042 214.335 467.989 219.859 465.497 224.679C463.664 228.197 461.026 231.321 457.865 234.033C450.315 240.511 439.916 244.662 430.9 245.276C428.408 238.184 431.074 231.111 436.049 225.1C443.755 215.81 456.912 208.92 467.439 208.04Z" fill="white"/>
</g>
<defs>
<clipPath id="clip0_305_2994">
<rect width="534" height="462" fill="white" transform="matrix(-1 0 0 1 534 0)"/>
</clipPath>
</defs>
</svg>
